<svg width="18" height="18" viewBox="0 0 18 18" fill="none" xmlns="http://www.w3.org/2000/svg">
<g clip-path="url(#clip0_103_1432)">
<path d="M8.04003 0.0659671C4.87779 0.395967 2.05227 2.47785 0.767792 5.42397C-0.0599678 7.32597 -0.197728 9.51597 0.390032 11.5321C1.11603 14.046 2.99403 16.1698 5.42403 17.2321C7.32603 18.0598 9.51603 18.1976 11.5323 17.6098C14.55 16.7398 16.9262 14.2621 17.7062 11.1838C18.9239 6.35997 15.936 1.42761 11.1 0.275967C10.0378 0.0239671 9.10227 -0.0421529 8.04003 0.0659671ZM8.16003 5.63997C8.92779 6.65997 9.57603 7.49997 9.60003 7.49997C9.62403 7.49997 10.4223 6.65997 11.364 5.63997L13.086 3.77997H14.064L13.854 4.00221C13.734 4.12773 12.954 4.97385 12.12 5.87997C11.286 6.78597 10.47 7.66773 10.3078 7.82997L10.02 8.13597L12.27 11.13C13.506 12.78 14.52 14.1477 14.52 14.1722C14.52 14.2022 13.7823 14.22 12.8878 14.22L11.25 14.214L9.72603 12.174C8.67603 10.764 8.18403 10.1576 8.13603 10.194C8.10003 10.224 7.24779 11.1422 6.24003 12.234L4.41003 14.22H3.94779C3.69003 14.22 3.48003 14.2077 3.48003 14.19C3.48003 14.1722 4.43403 13.1277 5.59779 11.874C6.75615 10.62 7.71615 9.56997 7.72779 9.55221C7.73403 9.52773 6.78003 8.22597 5.61003 6.65997C4.44003 5.09997 3.48003 3.80997 3.48003 3.79773C3.48003 3.78609 4.21779 3.77997 5.12403 3.77997H6.76779L8.16003 5.63997Z" fill="black"/>
</g>
<defs>
<clipPath id="clip0_103_1432">
<rect width="18" height="18" fill="white"/>
</clipPath>
</defs>
</svg>
